
        <svg width="3221.17220322761" height="3221.17220322761" xmlns="http://www.w3.org/2000/svg" xmlns:xlink="http://www.w3.org/1999/xlink" version="1.1">
            <rect fill="#000000" width="3221.17220322761" height="3221.17220322761"/>
            <g transform="scale(11.058610161380518) translate(10, 10)">
                <g id="main_text" rel="mainfill" name="main_text" xmlns:name="mainText_mainfill" fill="#a9a9a9" transform="translate(109.235915184021, 60.868117332458496)"><path d="M25.75 62.9 c-2.1667 0 -4.2166 0.4167 -6.1499 1.25 s-3.6333 1.95 -5.1 3.35 c-3.1333 2.9909 -4.7 6.6242 -4.7 10.9 c0 4.3046 1.5667 7.9879 4.7 11.05 c3.1721 3.1 6.9054 4.65 11.2 4.65 c4.4 0 8.1 -1.5 11.1 -4.5 c3.0667 -3.0667 4.6 -6.7 4.6 -10.9 c0 -4.2961 -1.5167 -7.9961 -4.55 -11.1 c-3.0621 -3.1333 -6.7621 -4.7 -11.1 -4.7 z M48.5 78.2 c0 3.3333 -0.6 6.3667 -1.8 9.1 s-2.8333 5.1333 -4.9 7.2 c-4.4 4.4 -9.8 6.6 -16.2 6.6 c-6.294 0 -11.694 -2.2167 -16.2 -6.65 c-4.4667 -4.3946 -6.7 -9.7446 -6.7 -16.05 c0 -5.4533 1.7 -10.22 5.1 -14.3 l26.6 -32.1 l9.2 0 l-20.8 25 l2 -1.3 c6.812 0.28379 12.379 2.3838 16.7 6.3 c4.6667 4.2292 7 9.6292 7 16.2 z M43.11 100 l0 -60.9 l-9.8 0 l0 -6.1 l16.8 -1.8 l0 68.8 l-7 0 z"/></g><g id="slogan_text" rel="mainfill" name="slogan_text" xmlns:name="sloganText_mainfill" fill="#a9a9a9" transform="translate(48.72908043861389, 157.06540203094482)"><path d="M7.2879 13.050999999999998 c5.6356 0 8.6655 4.3646 8.6655 8.3898 c0 4.428 -3.0508 8.5593 -8.6441 8.5593 l-5.678 0 c-0.21208 0 -0.36038 -0.14831 -0.36038 -0.36017 l0 -16.25 c0 -0.19068 0.12712 -0.33898 0.33898 -0.33898 l5.678 0 z M7.3517 27.6911 c3.9195 0 6.1655 -3.072 6.1443 -6.2712 c0 -3.1356 -2.1612 -6.0593 -6.1443 -6.0593 l-3.7076 0 l0.021186 12.331 l3.6864 0 z M30.96402881355932 13.050999999999998 l-1.6316 -0.0002069 c-0.21186 0 -0.33898 0.14831 -0.33898 0.33898 l0 16.25 c0 0.21186 0.14831 0.36017 0.36038 0.36017 l1.6314 0 c0.19068 0 0.3178 -0.16928 0.3178 -0.35996 l0 -16.25 c0 -0.19068 -0.14831 -0.33898 -0.33898 -0.33898 z M59.99996610169491 13.050999999999998 c0.19068 0 0.40233 0.16949 0.27521 0.44492 l-7.7966 16.335 c-0.063559 0.14831 -0.21208 0.27521 -0.38157 0.27521 l-0.16928 0 c-0.16949 0 -0.3178 -0.12691 -0.38136 -0.27521 l-7.7966 -16.356 c-0.12712 -0.25424 0.084746 -0.42373 0.27542 -0.42373 l2.1398 0 c0.21186 0 0.29661 0.16949 0.38136 0.38136 l5.4661 11.907 l5.4663 -11.907 c0.10593 -0.21186 0.16949 -0.38136 0.38136 -0.38136 l2.1398 0 z M74.69284237288136 13.050999999999998 l-1.6316 -0.0002069 c-0.21186 0 -0.33898 0.14831 -0.33898 0.33898 l0 16.25 c0 0.21186 0.14831 0.36017 0.36038 0.36017 l1.6314 0 c0.19068 0 0.3178 -0.16928 0.3178 -0.35996 l0 -16.25 c0 -0.19068 -0.14831 -0.33898 -0.33898 -0.33898 z M87.96607966101693 27.0975 l0.9322 -1.0595 c0.23305 -0.25424 0.48729 -0.25424 0.67775 -0.10593 c0.57225 0.48729 2.0129 1.928 3.9409 1.928 c2.1186 0 3.3898 -1.0169 3.3898 -2.4153 c0 -1.7373 -1.9072 -2.2246 -3.7292 -2.9237 c-2.7754 -1.1017 -4.9788 -2.3305 -4.9788 -4.9788 c0 -2.161 1.589 -4.6186 5.4025 -4.6186 c2.6059 0 4.4915 1.5042 5.0212 2.0127 c0.19068 0.19068 0.29661 0.44492 0.12712 0.65678 l-0.82627 1.0805 c-0.16949 0.23326 -0.40254 0.31801 -0.67797 0.12733 c-0.55085 -0.42373 -1.8644 -1.6102 -3.6229 -1.6102 c-1.9068 0 -3.0297 1.0593 -3.0297 2.3517 c0 1.4619 1.3983 2.0551 3.39 2.8178 c2.5424 1.0169 5.2966 2.2034 5.2966 5.1059 c0 2.4788 -2.3727 4.682 -5.7413 4.682 c-3.0508 0 -4.9364 -1.9701 -5.4661 -2.4786 c-0.16949 -0.14831 -0.3178 -0.33877 -0.10593 -0.57203 z M114.07843559322033 13.050999999999998 l-1.6316 -0.0002069 c-0.21186 0 -0.33898 0.14831 -0.33898 0.33898 l0 16.25 c0 0.21186 0.14831 0.36017 0.36038 0.36017 l1.6314 0 c0.19068 0 0.3178 -0.16928 0.3178 -0.35996 l0 -16.25 c0 -0.19068 -0.14831 -0.33898 -0.33898 -0.33898 z M136.24977288135594 30.14831 c4.7669 0 8.6441 -3.7922 8.6441 -8.6439 c0 -4.7881 -3.8771 -8.6017 -8.6441 -8.6017 c-4.8093 0 -8.6864 3.8136 -8.6864 8.6017 c0 4.8517 3.8771 8.6439 8.6864 8.6439 z M136.24977288135594 27.839199999999998 c-3.4322 0 -6.2924 -2.8602 -6.2924 -6.3347 c0 -3.432 2.8602 -6.2922 6.2924 -6.2922 c3.411 0 6.2712 2.8602 6.2712 6.2922 c0 3.4746 -2.8602 6.3347 -6.2712 6.3347 z M172.21333898305085 13.050999999999998 c0.19068 0 0.33941 0.14851 0.33941 0.31801 l0 16.314 c0 0.16949 -0.12712 0.3178 -0.3178 0.3178 l-0.59322 0 c-0.44492 0 -0.91102 -0.3178 -1.5042 -0.97458 l-9.8305 -11.292 l0 11.907 c0 0.19068 -0.14831 0.33898 -0.33898 0.33898 l-1.6737 0.020979 c-0.21186 0 -0.36038 -0.14831 -0.36038 -0.36017 l0 -16.25 c0 -0.19068 0.14851 -0.33898 0.33898 -0.33898 l0.99576 0 c0.19068 0 0.3178 0.084746 0.48729 0.27542 l10.424 12.161 l0 -12.119 c0 -0.16949 0.12712 -0.3178 0.3178 -0.3178 l1.7161 0 z"/></g><defs id="SvgjsDefs1002"/><g id="SvgjsG1010" transform="translate(0, 0) scale(2.8024981537338713)" rel="mainfill" name="outline_container" xmlns:name="outlineContainer_mainfill" fill="#a9a9a9"><g fill=""><path d="M74 .7h22.2v32.8h.6V0H74v.7zM.7 33.5V.7h22.1V0H0v33.5h.7zM22.8 96.2H.7V63.3H0v33.5h22.8v-.6zM96.2 63.3v32.9H74v.6h22.8V63.3h-.6z"/></g></g>
            </g>
        </svg>
    